<svg xmlns="http://www.w3.org/2000/svg" width="17" height="23" fill="none" viewBox="0 0 17 23"><path fill="#fff" fill-opacity=".8" d="M16.5 8.255A8.25 8.25 0 1 0 3 14.614v7.14a.75.75 0 0 0 1.086.672L8.25 20.35l4.165 2.082c.105.05.22.075.335.074a.75.75 0 0 0 .75-.75v-7.141a8.24 8.24 0 0 0 3-6.36m-15 0a6.75 6.75 0 1 1 6.75 6.75 6.76 6.76 0 0 1-6.75-6.75M12 20.542l-3.415-1.707a.75.75 0 0 0-.672 0L4.5 20.542v-4.94a8.24 8.24 0 0 0 7.5 0zm-3.75-7.037a5.25 5.25 0 1 0 0-10.5 5.25 5.25 0 0 0 0 10.5m0-9a3.75 3.75 0 1 1 0 7.5 3.75 3.75 0 0 1 0-7.5"/></svg>