<svg xmlns="http://www.w3.org/2000/svg" width="14" height="14" fill="none" viewBox="0 0 14 14"><path fill="url(#a)" fill-opacity=".6" d="M12.688 7c0 .684-.975 1.2-1.24 1.842-.257.62.077 1.677-.426 2.18s-1.56.17-2.18.425c-.639.266-1.158 1.24-1.842 1.24s-1.203-.974-1.842-1.24c-.62-.256-1.677.078-2.18-.425s-.17-1.56-.425-2.18C2.287 8.203 1.313 7.684 1.313 7s.974-1.203 1.24-1.842c.256-.619-.078-1.677.425-2.18s1.561-.17 2.18-.425C5.8 2.287 6.316 1.313 7 1.313s1.203.974 1.842 1.24c.62.256 1.677-.078 2.18.425s.17 1.56.425 2.18c.266.642 1.24 1.158 1.24 1.842" opacity=".2"/><path fill="url(#b)" fill-opacity=".6" d="M12.352 5.623c-.207-.216-.42-.438-.5-.633-.075-.179-.079-.475-.083-.762-.008-.534-.017-1.139-.438-1.56-.42-.42-1.025-.429-1.559-.437-.287-.004-.583-.008-.762-.083-.195-.08-.418-.294-.633-.5C8 1.286 7.571.875 7 .875c-.57 0-1 .41-1.377.773-.216.206-.438.42-.633.5-.178.075-.475.079-.762.083-.534.008-1.139.017-1.56.438-.42.42-.426 1.025-.437 1.559-.004.287-.008.583-.083.762-.08.195-.294.417-.5.633C1.286 6 .875 6.429.875 7c0 .57.41 1 .773 1.377.206.215.42.438.5.633.075.179.079.475.083.762.008.534.017 1.139.438 1.56.42.42 1.025.428 1.559.437.287.004.583.008.762.083.195.08.417.293.633.5.377.362.806.773 1.377.773.57 0 1-.41 1.377-.773.215-.207.438-.42.633-.5.179-.075.475-.079.762-.083.534-.008 1.139-.017 1.56-.438.42-.42.428-1.025.437-1.559.004-.287.008-.583.083-.762.08-.195.293-.418.5-.633.362-.377.773-.806.773-1.377 0-.57-.41-1-.773-1.377m-.632 2.149c-.262.273-.533.556-.677.903-.138.334-.144.715-.15 1.084-.005.383-.01.784-.18.953-.17.17-.569.176-.954.182-.37.005-.75.011-1.084.149-.347.144-.63.415-.903.677-.274.262-.553.53-.772.53s-.5-.27-.772-.53c-.27-.26-.556-.533-.903-.677-.334-.138-.715-.144-1.084-.15-.383-.005-.784-.01-.953-.18-.17-.17-.176-.569-.182-.954-.005-.37-.011-.75-.149-1.084-.144-.347-.415-.63-.677-.903-.262-.274-.53-.553-.53-.772s.27-.5.53-.772c.26-.27.533-.556.677-.903.138-.334.144-.715.15-1.084.005-.383.01-.784.18-.953.17-.17.569-.176.954-.182.37-.005.75-.011 1.084-.149.347-.144.63-.415.903-.677.274-.262.553-.53.772-.53s.5.27.772.53c.27.26.556.533.903.677.334.138.715.144 1.084.15.383.005.784.01.953.18.17.17.176.569.182.954.005.37.011.75.149 1.084.144.347.415.63.677.903.262.274.53.553.53.772s-.27.5-.53.772M9.497 5.378a.437.437 0 0 1 0 .619L6.435 9.06a.437.437 0 0 1-.62 0L4.503 7.747a.438.438 0 0 1 .619-.619l1.003 1.003 2.753-2.753a.437.437 0 0 1 .619 0"/><defs><linearGradient id="a" x1="7" x2="7" y1="1.313" y2="12.688" gradientUnits="userSpaceOnUse"><stop stop-color="#032e15"/><stop offset="1" stop-color="#016630"/></linearGradient><linearGradient id="b" x1="7" x2="7" y1=".875" y2="13.125" gradientUnits="userSpaceOnUse"><stop stop-color="#032e15"/><stop offset="1" stop-color="#016630"/></linearGradient></defs></svg>